<svg xmlns="http://www.w3.org/2000/svg" viewBox="0 0 44 48" shape-rendering="crispEdges" aria-hidden="true">
  <!-- Plain pixel ladybug from site LADYBUG_MAP (ink #131210, magenta #cc1757) -->
  <g>
    <rect x="8" y="4" width="4" height="4" fill="#131210"/>
    <rect x="32" y="4" width="4" height="4" fill="#131210"/>
    <rect x="12" y="8" width="4" height="4" fill="#131210"/>
    <rect x="28" y="8" width="4" height="4" fill="#131210"/>
    <rect x="16" y="12" width="12" height="4" fill="#131210"/>
    <rect x="12" y="16" width="20" height="4" fill="#131210"/>
    <rect x="8" y="20" width="12" height="4" fill="#cc1757"/>
    <rect x="20" y="20" width="4" height="4" fill="#131210"/>
    <rect x="24" y="20" width="12" height="4" fill="#cc1757"/>
    <rect x="4" y="24" width="8" height="4" fill="#cc1757"/>
    <rect x="12" y="24" width="4" height="4" fill="#131210"/>
    <rect x="16" y="24" width="4" height="4" fill="#cc1757"/>
    <rect x="20" y="24" width="4" height="4" fill="#131210"/>
    <rect x="24" y="24" width="4" height="4" fill="#cc1757"/>
    <rect x="28" y="24" width="4" height="4" fill="#131210"/>
    <rect x="32" y="24" width="8" height="4" fill="#cc1757"/>
    <rect x="4" y="28" width="16" height="4" fill="#cc1757"/>
    <rect x="20" y="28" width="4" height="4" fill="#131210"/>
    <rect x="24" y="28" width="16" height="4" fill="#cc1757"/>
    <rect x="4" y="32" width="4" height="4" fill="#cc1757"/>
    <rect x="8" y="32" width="4" height="4" fill="#131210"/>
    <rect x="12" y="32" width="8" height="4" fill="#cc1757"/>
    <rect x="20" y="32" width="4" height="4" fill="#131210"/>
    <rect x="24" y="32" width="8" height="4" fill="#cc1757"/>
    <rect x="32" y="32" width="4" height="4" fill="#131210"/>
    <rect x="36" y="32" width="4" height="4" fill="#cc1757"/>
    <rect x="8" y="36" width="12" height="4" fill="#cc1757"/>
    <rect x="20" y="36" width="4" height="4" fill="#131210"/>
    <rect x="24" y="36" width="12" height="4" fill="#cc1757"/>
    <rect x="12" y="40" width="8" height="4" fill="#cc1757"/>
    <rect x="24" y="40" width="8" height="4" fill="#cc1757"/>
  </g>
</svg>
